<svg width="90" height="90" viewBox="0 0 90 90" fill="none" xmlns="http://www.w3.org/2000/svg">
<path d="M45 47.8125C51.2132 47.8125 56.25 42.7757 56.25 36.5625C56.25 30.3493 51.2132 25.3125 45 25.3125C38.7868 25.3125 33.75 30.3493 33.75 36.5625C33.75 42.7757 38.7868 47.8125 45 47.8125Z" fill="white" stroke="#186D41" stroke-width="2" stroke-linecap="round" stroke-linejoin="round"/>
<path d="M73.125 36.5625C73.125 61.875 45 81.5625 45 81.5625C45 81.5625 16.875 61.875 16.875 36.5625C16.875 29.1033 19.8382 21.9496 25.1126 16.6751C30.3871 11.4007 37.5408 8.4375 45 8.4375C52.4592 8.4375 59.6129 11.4007 64.8874 16.6751C70.1618 21.9496 73.125 29.1033 73.125 36.5625V36.5625Z" fill="#186D41" stroke="#186D41" stroke-width="2" stroke-linecap="round" stroke-linejoin="round"/>
<circle cx="45" cy="36" r="18" fill="white"/>
</svg>
