<svg width="74" height="74" viewBox="0 0 74 74" fill="none" xmlns="http://www.w3.org/2000/svg">
<path d="M21.581 37.2478C24.8082 43.9122 30.1971 49.2873 36.8698 52.4974C37.362 52.7304 37.9064 52.8313 38.4494 52.7901C38.9924 52.7488 39.5154 52.5669 39.9667 52.2622L49.7672 45.7155C50.2002 45.4218 50.7006 45.2426 51.2215 45.1946C51.7425 45.1466 52.2672 45.2314 52.7466 45.441L71.0931 53.3206C71.7201 53.5816 72.2439 54.0415 72.584 54.6294C72.924 55.2173 73.0613 55.9008 72.9748 56.5744C72.3933 61.113 70.178 65.2841 66.7434 68.3074C63.3088 71.3307 58.8903 72.999 54.3146 73C40.1747 73 26.6139 67.3829 16.6155 57.3845C6.61706 47.3861 1 33.8253 1 19.6854C1.00103 15.1097 2.66928 10.6912 5.69257 7.25661C8.71587 3.82203 12.887 1.60673 17.4256 1.02524C18.0993 0.938711 18.7827 1.07602 19.3706 1.41604C19.9585 1.75605 20.4184 2.2799 20.6794 2.90694L28.559 21.2926C28.7639 21.7644 28.8496 22.2794 28.8086 22.7921C28.7676 23.3048 28.6011 23.7996 28.3237 24.2328L21.777 34.1901C21.4856 34.6404 21.3145 35.158 21.2802 35.6934C21.2459 36.2287 21.3494 36.7639 21.581 37.2478V37.2478Z" fill="#FEE970" stroke="#FEE970" stroke-linecap="round" stroke-linejoin="round"/>
</svg>
